<?xml version="1.0" encoding="UTF-8"?>
<svg id="Layer_1" data-name="Layer 1" xmlns="http://www.w3.org/2000/svg" version="1.1" viewBox="0 0 340.8 52">
  <defs>
    <style>
      .cls-1 {
        fill: #e0000b;
      }

      .cls-1, .cls-2, .cls-3, .cls-4, .cls-5, .cls-6, .cls-7, .cls-8 {
        stroke-width: 0px;
      }

      .cls-1, .cls-5, .cls-6, .cls-7 {
        fill-rule: evenodd;
      }

      .cls-2 {
        fill: #f2ea3b;
      }

      .cls-3, .cls-5 {
        fill: #000000;
      }

      .cls-4 {
        fill: #5fba46;
      }

      .cls-6 {
        fill: #c30003;
      }

      .cls-7 {
        fill: #c2b1d6;
      }

      .cls-8 {
        fill: #ed332b;
      }
    </style>
  </defs>
  <g>
    <g>
      <circle class="cls-3" cx="30.4" cy="41.1" r="3.3"/>
      <polygon class="cls-4" points="26.5 12.1 28.7 8 54.8 51.4 49.5 51.4 26.5 12.1"/>
      <polygon class="cls-2" points="23.4 17.2 25.5 13.6 47.5 51.4 43.1 51.4 23.4 17.2"/>
      <polygon class="cls-8" points="22.1 19.7 31 34.4 25 34.4 22.2 29.7 17 38.7 12.4 46.3 37.4 46.3 40.6 51.4 3.6 51.4 22.1 19.7"/>
    </g>
    <g>
      <path class="cls-3" d="M85,32.2l7.2,2.2c-.5,2-1.3,3.7-2.3,5.1-1,1.4-2.3,2.4-3.9,3.1s-3.5,1-5.9,1-5.3-.4-7.1-1.3c-1.8-.8-3.4-2.3-4.8-4.5-1.3-2.1-2-4.9-2-8.2s1.2-7.8,3.5-10.2c2.4-2.4,5.7-3.6,10-3.6s6,.7,7.9,2,3.4,3.5,4.3,6.3l-7.3,1.6c-.3-.8-.5-1.4-.8-1.8-.5-.6-1-1.1-1.7-1.5s-1.4-.5-2.2-.5c-1.9,0-3.3.8-4.3,2.3-.8,1.1-1.1,2.9-1.1,5.3s.5,5,1.4,6.1c.9,1.1,2.2,1.7,3.8,1.7s2.8-.4,3.6-1.3c.8-.9,1.4-2.2,1.8-3.9Z"/>
      <path class="cls-3" d="M96.2,16.4h22.2v5.7h-13.9v4.3h12.9v5.5h-12.9v5.3h14.3v6.1h-22.6s0-26.8,0-26.8Z"/>
      <path class="cls-3" d="M123.3,16.4h7.7l10.1,14.8v-14.8h7.8v26.8h-7.8l-10-14.7v14.7h-7.8v-26.8Z"/>
      <path class="cls-3" d="M152.5,16.4h25.1v6.6h-8.4v20.1h-8.3v-20.1h-8.4v-6.6Z"/>
      <path class="cls-3" d="M181.5,43.1v-26.8h13.8c2.6,0,4.5.2,5.9.7,1.4.4,2.4,1.3,3.3,2.4.8,1.2,1.2,2.6,1.2,4.3s-.3,2.8-.9,3.8c-.6,1.1-1.5,2-2.6,2.6-.7.4-1.7.8-2.9,1.1,1,.3,1.7.7,2.2,1,.3.2.7.7,1.3,1.4s1,1.3,1.2,1.7l4,7.8h-9.3l-4.4-8.2c-.6-1.1-1.1-1.7-1.5-2.1-.6-.4-1.3-.6-2-.6h-.7v10.9h-8.3ZM189.8,27.2h3.5c.4,0,1.1-.1,2.2-.4.5-.1,1-.4,1.3-.8.3-.5.5-1,.5-1.6,0-.9-.3-1.5-.8-2-.5-.5-1.6-.7-3.1-.7h-3.6v5.4h0Z"/>
      <path class="cls-3" d="M210.4,16.4h22.2v5.7h-13.9v4.3h12.9v5.5h-12.9v5.3h14.3v6.1h-22.6v-26.8h0Z"/>
      <path class="cls-3" d="M267.7,32.2l7.2,2.2c-.5,2-1.3,3.7-2.3,5.1-1,1.4-2.3,2.4-3.9,3.1-1.6.7-3.5,1-5.9,1s-5.3-.4-7.1-1.3c-1.8-.8-3.4-2.3-4.8-4.5-1.3-2.1-2-4.9-2-8.2s1.2-7.8,3.5-10.2c2.4-2.4,5.7-3.6,10-3.6s6,.7,7.9,2c1.9,1.4,3.4,3.5,4.3,6.3l-7.3,1.6c-.3-.8-.5-1.4-.8-1.8-.5-.6-1-1.1-1.7-1.5-.7-.3-1.4-.5-2.2-.5-1.9,0-3.3.8-4.3,2.3-.8,1.1-1.1,2.9-1.1,5.3s.5,5,1.4,6.1c.9,1.1,2.2,1.7,3.8,1.7s2.8-.4,3.6-1.3,1.4-2.2,1.8-3.9Z"/>
      <path class="cls-3" d="M277.9,29.8c0-4.4,1.2-7.8,3.6-10.2,2.4-2.4,5.8-3.6,10.2-3.6s7.9,1.2,10.3,3.6,3.6,5.7,3.6,10-.5,5.7-1.6,7.7-2.6,3.6-4.6,4.7c-2,1.1-4.5,1.7-7.4,1.7s-5.5-.5-7.5-1.4c-2-1-3.6-2.5-4.8-4.6-1.2-2.1-1.8-4.7-1.8-7.8ZM286.2,29.8c0,2.7.5,4.6,1.5,5.8,1,1.2,2.4,1.8,4.1,1.8s3.2-.6,4.1-1.7c1-1.2,1.5-3.2,1.5-6.2s-.5-4.4-1.5-5.5-2.4-1.7-4.1-1.7-3,.6-4,1.8c-1,1.2-1.5,3.1-1.5,5.9Z"/>
      <path class="cls-3" d="M310,16.4h10.9l4.2,16.3,4.2-16.3h10.9v26.8h-6.8v-20.4l-5.2,20.4h-6.1l-5.2-20.4v20.4h-6.8v-26.8h0Z"/>
    </g>
  </g>
  <g>
    <path class="cls-5" d="M18.9,31.3c7.5-2,14.1-4.1,20-6.3,6.6-2.4,4.1-11.9-3.3-10-8.7,2.3-15.4,4.9-20,7.8-6.8,4.3-5.6,10.9,3.3,8.5h0Z"/>
    <path class="cls-7" d="M38.9,25c-18.9,3.9-26,4.8-22.2-2.9h0c-1.3.8-2.5,1.7-3.5,2.6-4,4.1-2.1,8.7,5.6,6.6,7.5-2,14.1-4.1,20-6.3h0Z"/>
    <path class="cls-1" d="M14.3,23.8c7.2-4.6,15.4-7.7,23.8-9-4-5.6-9.1-10.4-14.9-14s-5.2-1-7.1.9c-6.6,6.8-10.9,15.7-12.1,25.2,3.4-2.9,6.5-6,9.4-9.4-.2,2.1.1,4.3.9,6.3h0Z"/>
    <path class="cls-6" d="M13.4,17.5c-2.9,3.4-6,6.6-9.4,9.4,2.9-6.5,6.8-12.6,11.5-17.9-1.1,2.7-1.8,5.6-2.1,8.5h0Z"/>
    <path class="cls-5" d="M5.9,23.3c2,1,2.8,3.4,1.8,5.4-1,2-3.4,2.8-5.4,1.8-2-1-2.8-3.4-1.8-5.4,1-2,3.4-2.8,5.4-1.8h0Z"/>
    <path class="cls-7" d="M0,27.7c.5.1.9.2,1.4.3,1.7.2,4.5-.3,6.6-1.2,0,.7-.1,1.4-.4,2-1,2-3.4,2.8-5.4,1.8-1.2-.6-1.9-1.7-2.2-2.9H0Z"/>
  </g>
</svg>